<?xml version="1.0" encoding="UTF-8" standalone="no"?>
<!-- Created with Inkscape (http://www.inkscape.org/) -->

<svg
   xmlns:dc="http://purl.org/dc/elements/1.1/"
   xmlns:cc="http://creativecommons.org/ns#"
   xmlns:rdf="http://www.w3.org/1999/02/22-rdf-syntax-ns#"
   xmlns:svg="http://www.w3.org/2000/svg"
   xmlns="http://www.w3.org/2000/svg"
   xmlns:sodipodi="http://sodipodi.sourceforge.net/DTD/sodipodi-0.dtd"
   xmlns:inkscape="http://www.inkscape.org/namespaces/inkscape"
   width="138.4375"
   height="18.828125"
   id="svg2"
   version="1.1"
   inkscape:version="0.48.4 r9939"
   sodipodi:docname="新規ドキュメント 1">
  <defs
     id="defs4" />
  <sodipodi:namedview
     id="base"
     pagecolor="#ffffff"
     bordercolor="#666666"
     borderopacity="1.0"
     inkscape:pageopacity="0.0"
     inkscape:pageshadow="2"
     inkscape:zoom="5.08"
     inkscape:cx="57.886815"
     inkscape:cy="1.1726528"
     inkscape:document-units="px"
     inkscape:current-layer="text2985"
     showgrid="false"
     fit-margin-top="0"
     fit-margin-left="0"
     fit-margin-right="0"
     fit-margin-bottom="0"
     inkscape:window-width="1366"
     inkscape:window-height="706"
     inkscape:window-x="-8"
     inkscape:window-y="-8"
     inkscape:window-maximized="1" />
  <metadata
     id="metadata7">
    <rdf:RDF>
      <cc:Work
         rdf:about="">
        <dc:format>image/svg+xml</dc:format>
        <dc:type
           rdf:resource="http://purl.org/dc/dcmitype/StillImage" />
        <dc:title></dc:title>
      </cc:Work>
    </rdf:RDF>
  </metadata>
  <g
     inkscape:label="レイヤー 1"
     inkscape:groupmode="layer"
     id="layer1"
     transform="translate(-63.325893,-447.46262)">
    <g
       style="font-size:20px;font-style:normal;font-variant:normal;font-weight:normal;font-stretch:normal;line-height:125%;letter-spacing:0px;word-spacing:0px;fill:#000000;fill-opacity:1;stroke:none;font-family:MS Mincho;-inkscape-font-specification:MS Mincho"
       id="text2985">
      <path
         d="m 70.200893,459.02512 c -0.260423,-0.57292 -0.859381,-1.09375 -1.796875,-1.5625 l 0,7.89062 c -0.677088,0.625 -1.015629,0.65104 -1.015625,0.0781 l 0,-7.65625 c -0.989586,1.61458 -2.187502,2.94271 -3.59375,3.98437 -0.3125,0.0521 -0.364584,-0.0521 -0.15625,-0.3125 1.927081,-2.03124 3.151038,-4.03645 3.671875,-6.01562 l -3.203125,0 0,-0.46875 3.28125,0 0,-7.42188 1.328125,0.23438 c 0.416661,0.26043 0.312494,0.44272 -0.3125,0.54687 l 0,6.64063 1.640625,0 1.015625,-1.01563 1.25,0.9375 c 0.312491,0.26043 0.312491,0.44272 0,0.54688 l -3.90625,0 0,1.64062 c 1.97916,0.41667 2.968742,1.06771 2.96875,1.95313 -8e-6,0.36458 -0.156258,0.54688 -0.46875,0.54687 -0.260424,10e-6 -0.494799,-0.18229 -0.703125,-0.54687 z m -5.9375,-9.0625 c 1.302081,0.67709 1.953122,1.56251 1.953125,2.65625 -3e-6,0.62501 -0.182294,0.93751 -0.546875,0.9375 -0.312502,10e-6 -0.468752,-0.28645 -0.46875,-0.85938 -2e-6,-1.04165 -0.364585,-1.87499 -1.09375,-2.5 -0.104167,-0.15624 -0.05208,-0.23436 0.15625,-0.23437 z m 15.234375,14.29687 0.234375,0 1.171875,-1.17187 1.484375,1.09375 c 0.260397,0.26041 0.260397,0.4427 0,0.54687 l -11.875,0 0,-0.46875 2.5,0 0,-15.3125 1.171875,0.70313 4.0625,0 0.46875,-0.625 1.09375,0.78125 c 0.312483,0.26043 0.208317,0.44272 -0.3125,0.54687 z m -5.46875,-9.92187 4.453125,0 0,-4.21875 -4.453125,0 z m 4.453125,4.6875 0,-4.21875 -4.453125,0 0,4.21875 z m 0,5.23437 0,-4.76562 -4.453125,0 0,4.76562 z m -9.609375,-10.46875 c 0.677077,-1.1979 1.249993,-2.65624 1.71875,-4.375 l 1.25,0.78125 c 0.364574,0.26043 0.182283,0.39064 -0.546875,0.39063 -0.677091,1.30209 -1.380215,2.42188 -2.109375,3.35937 -0.208339,0.15626 -0.312506,0.10418 -0.3125,-0.15625 z"
         style=""
         id="path2990" />
      <path
         d="m 100.04464,464.65012 c -4.010426,-2.39584 -6.354174,-6.01562 -7.031247,-10.85938 l -0.390625,0 c 0.05207,5.41667 -2.682298,9.14063 -8.203125,11.17188 -0.364584,0.0521 -0.416667,-0.0781 -0.15625,-0.39063 4.791661,-2.13541 7.239575,-5.72916 7.34375,-10.78125 l -7.1875,0 0,-0.46875 7.1875,0 0,-5.625 1.328125,0.23438 c 0.416657,0.26043 0.31249,0.44272 -0.3125,0.54687 l 0,4.84375 6.25,0 1.171872,-1.17187 1.48438,1.09375 c 0.31248,0.26042 0.31248,0.44271 0,0.54687 l -8.046877,0 c 0.885406,4.58334 3.697903,7.91667 8.437497,10 -0.83335,0.15625 -1.45835,0.44271 -1.875,0.85938 z"
         style=""
         id="path2992" />
      <path
         d="m 114.10714,455.27512 c 0.36458,0.36459 0.54687,0.8073 0.54688,1.32812 -1e-5,0.52084 -0.15626,0.93751 -0.46875,1.25 -0.3646,0.36459 -0.8073,0.54688 -1.32813,0.54688 -0.52084,0 -0.93751,-0.15625 -1.25,-0.46875 -0.36459,-0.36458 -0.54688,-0.80729 -0.54687,-1.32813 -1e-5,-0.52082 0.15624,-0.93749 0.46875,-1.25 0.36457,-0.36457 0.80728,-0.54687 1.32812,-0.54687 0.52083,0 0.93749,0.15625 1.25,0.46875 z"
         style=""
         id="path2994" />
      <path
         d="m 134.18527,455.11887 c 1.8229,0.52084 3.46353,1.27605 4.92187,2.26562 1.40624,0.93751 2.10936,1.66667 2.10938,2.1875 -2e-5,0.41667 -0.18231,0.625 -0.54688,0.625 -0.31251,0 -0.75522,-0.36458 -1.32812,-1.09375 -1.04168,-1.30208 -2.78647,-2.52603 -5.23438,-3.67187 -0.26042,-0.20833 -0.23438,-0.3125 0.0781,-0.3125 z m -2.10938,-1.71875 c -2.44792,2.86459 -5.05208,5.10417 -7.8125,6.71875 -0.3125,0.10417 -0.39062,0.026 -0.23437,-0.23438 3.90624,-2.96874 6.90103,-6.17186 8.98437,-9.60937 l -8.4375,0 0,-0.46875 14.0625,0 1.17188,-1.17188 1.48437,1.09375 c 0.31248,0.26043 0.31248,0.44272 0,0.54688 l -7.57812,0 0.70312,0.46875 c 0.41666,0.26043 0.23437,0.41668 -0.54687,0.46875 -0.46876,0.62501 -0.93751,1.19792 -1.40625,1.71875 l 0.9375,0.3125 c 0.41665,0.26042 0.31249,0.44271 -0.3125,0.54687 l 0,10.9375 c -0.67709,0.625 -1.01564,0.65104 -1.01563,0.0781 z"
         style=""
         id="path2996" />
      <path
         d="m 157.07589,453.47824 c 0.83332,2.81251 2.55207,4.73959 5.15625,5.78125 -0.57293,0.20834 -1.04168,0.54688 -1.40625,1.01563 -1.9271,-1.51042 -3.22918,-3.48958 -3.90625,-5.9375 -0.57293,3.4375 -2.63022,5.80729 -6.17187,7.10937 -0.20834,0 -0.23438,-0.10416 -0.0781,-0.3125 3.38541,-1.82291 5.15624,-4.37499 5.3125,-7.65625 l -1.95312,0 c -1.25001,3.12501 -2.9948,5.39063 -5.23438,6.79688 -0.26042,0.0521 -0.3125,-0.026 -0.15625,-0.23438 1.14583,-1.04166 2.0052,-2.05728 2.57813,-3.04687 -0.31251,0.15625 -0.54688,-0.0521 -0.70313,-0.625 -0.20834,-0.52083 -0.54688,-0.98958 -1.01562,-1.40625 -0.62501,0.88542 -1.25001,1.61459 -1.875,2.1875 -0.26042,0.10417 -0.31251,0.026 -0.15625,-0.23438 1.09374,-1.56249 1.92708,-3.02082 2.5,-4.375 l -1.01563,0.15625 -1.95312,1.48438 0,2.8125 c -1e-5,1.04167 -0.10417,2.03125 -0.3125,2.96875 1.71874,0.625 2.57812,1.38021 2.57812,2.26562 0,0.41667 -0.15625,0.625 -0.46875,0.625 -0.20834,0 -0.44271,-0.28646 -0.70312,-0.85937 -0.36459,-0.78125 -0.83334,-1.35417 -1.40625,-1.71875 -0.52084,2.29166 -1.66667,4.08854 -3.4375,5.39062 -0.20834,0.0521 -0.26042,-0.026 -0.15625,-0.23437 1.92708,-2.29167 2.89062,-4.94792 2.89062,-7.96875 l 0,-9.45313 1.32813,0.23438 c 0.41666,0.26043 0.31249,0.44272 -0.3125,0.54687 l 0,5.07813 1.71875,-2.26563 1.32812,0.70313 c 0.52083,-1.45832 0.88541,-2.86457 1.09375,-4.21875 l 1.17188,0.3125 c 0.57291,0.20834 0.49478,0.41668 -0.23438,0.625 -0.10417,0.36459 -0.26042,0.83334 -0.46875,1.40625 l 1.875,0 0.39063,-0.625 1.32812,1.01562 c 0.26041,0.26043 0.10416,0.44272 -0.46875,0.54688 -0.15626,0.57292 -0.33855,1.1198 -0.54687,1.64062 l 1.875,0 0,-5 1.32812,0.23438 c 0.41666,0.26043 0.31249,0.44272 -0.3125,0.54687 l 0,4.21875 2.26563,0 1.01562,-1.01562 1.25,0.9375 c 0.31248,0.26042 0.31248,0.44271 0,0.54687 z m 1.32813,7.26563 c -0.20835,-0.20833 -0.18231,-0.28646 0.0781,-0.23438 2.18749,1.09375 3.28123,2.08334 3.28125,2.96875 -2e-5,0.46875 -0.18231,0.70313 -0.54687,0.70313 -0.26044,0 -0.46877,-0.15625 -0.625,-0.46875 -0.62502,-1.19792 -1.35418,-2.1875 -2.1875,-2.96875 z m -2.8125,0.39062 c 1.5104,1.04167 2.26561,2.00521 2.26562,2.89063 -10e-6,0.46875 -0.13022,0.70312 -0.39062,0.70312 -0.3646,0 -0.59897,-0.23437 -0.70313,-0.70312 -0.20834,-0.98959 -0.65105,-1.875 -1.32812,-2.65625 -0.15626,-0.20833 -0.10418,-0.28646 0.15625,-0.23438 z m -3.04688,0.70313 c -0.0521,-0.26042 0.026,-0.3125 0.23438,-0.15625 0.93749,1.04166 1.40624,1.92708 1.40625,2.65625 -1e-5,0.62499 -0.20835,0.93749 -0.625,0.9375 -0.31251,-1e-5 -0.46876,-0.4948 -0.46875,-1.48438 -1e-5,-0.57292 -0.1823,-1.22396 -0.54688,-1.95312 z m -2.34375,-0.23438 c 0.0521,1.25 -0.0521,2.21354 -0.3125,2.89063 -0.26042,0.62499 -0.67709,0.93749 -1.25,0.9375 -0.36459,-1e-5 -0.54688,-0.15626 -0.54687,-0.46875 -1e-5,-0.26042 0.20833,-0.57292 0.625,-0.9375 0.62499,-0.52084 1.01562,-1.32813 1.17187,-2.42188 0.10416,-0.3125 0.20833,-0.3125 0.3125,0 z m 1.32813,-5.07812 c 0.46874,-0.72916 0.83332,-1.43229 1.09375,-2.10938 -0.31251,0.26043 -0.57293,0.10418 -0.78125,-0.46875 -0.26043,-0.52082 -0.62501,-0.93749 -1.09375,-1.25 -0.46876,0.93751 -0.83334,1.58855 -1.09375,1.95313 0.93749,0.46875 1.56249,1.09375 1.875,1.875 z m -0.0781,-5.625 c -0.20834,0.57292 -0.41667,1.09376 -0.625,1.5625 0.83333,0.31251 1.48437,0.85938 1.95313,1.64062 0.41665,-0.88541 0.72915,-1.95311 0.9375,-3.20312 z m 6.64063,-1.71875 c 1.30207,0.67709 1.95311,1.32813 1.95312,1.95312 -10e-6,0.31251 -0.13022,0.46876 -0.39062,0.46875 -0.26043,10e-6 -0.46877,-0.18228 -0.625,-0.54687 -0.31252,-0.67707 -0.6771,-1.22395 -1.09375,-1.64063 -0.15627,-0.20832 -0.10418,-0.28644 0.15625,-0.23437 z m -14.0625,7.89062 c -0.36459,10e-6 -0.54688,-0.20833 -0.54688,-0.625 0,-0.20832 0.0781,-0.4427 0.23438,-0.70312 0.41666,-0.67708 0.625,-1.64062 0.625,-2.89063 0,-0.31249 0.10416,-0.31249 0.3125,0 0.41666,1.14584 0.52083,2.10938 0.3125,2.89063 -0.26042,0.88542 -0.57292,1.32813 -0.9375,1.32812 z"
         style=""
         id="path2998" />
      <path
         d="m 171.84152,462.61887 c 1.30207,0 2.57811,0 3.82812,0 0.83332,0 1.48436,-0.0521 1.95313,-0.15625 0.46873,-0.10417 0.72915,-0.15625 0.78125,-0.15625 0.31248,0 0.62498,0.20833 0.9375,0.625 0.31248,0.41666 0.13019,0.625 -0.54688,0.625 -2.34376,0 -4.68751,0 -7.03125,0 -1.875,0 -3.28125,-0.54688 -4.21875,-1.64063 -0.57292,-0.67708 -0.9375,-1.51041 -1.09375,-2.5 0.10417,-0.20833 0.20833,-0.18229 0.3125,0.0781 0.26042,0.67708 0.65104,1.27604 1.17188,1.79687 0.88541,0.88542 2.18749,1.32813 3.90625,1.32813 z m 4.84375,-11.25 c 0.15623,0.15626 0.31248,0.33855 0.46875,0.54687 0.2604,0.3646 0.15623,0.54689 -0.3125,0.54688 -0.3646,10e-6 -0.91147,10e-6 -1.64063,0 -0.62501,10e-6 -1.19792,0.0781 -1.71875,0.23437 -1.04167,0.31251 -2.18751,0.8073 -3.4375,1.48438 -0.3125,0.15626 -0.39063,0.10417 -0.23437,-0.15625 0.78124,-0.62499 1.6927,-1.17187 2.73437,-1.64063 -1.25001,-0.10415 -2.21355,-0.31249 -2.89062,-0.625 -0.88542,-0.41665 -1.53647,-0.96353 -1.95313,-1.64062 0,-0.26041 0.10417,-0.28645 0.3125,-0.0781 0.78125,0.88543 2.36979,1.32814 4.76563,1.32813 1.71874,10e-6 2.81249,-0.0781 3.28125,-0.23438 0.20832,-0.0521 0.41665,0.0261 0.625,0.23438 z m 4.6875,-2.8125 c 0.31248,0.26043 0.52081,0.57293 0.625,0.9375 0.10415,0.41668 -2e-5,0.67709 -0.3125,0.78125 -0.31252,0.10418 -0.54689,-0.026 -0.70313,-0.39063 -0.3646,-0.83332 -1.04168,-1.56248 -2.03125,-2.1875 -0.10418,-0.15623 -0.0781,-0.20832 0.0781,-0.15625 0.8854,0.15627 1.66665,0.49481 2.34375,1.01563 z m -1.95313,1.32812 c 0.31249,0.26043 0.52082,0.57293 0.625,0.9375 0.10415,0.41668 -10e-6,0.6771 -0.3125,0.78125 -0.31251,0.10418 -0.54689,-0.026 -0.70312,-0.39062 -0.3646,-0.83332 -1.04168,-1.56249 -2.03125,-2.1875 -0.10418,-0.15624 -0.0781,-0.20832 0.0781,-0.15625 0.8854,0.15626 1.66665,0.4948 2.34375,1.01562 z"
         style=""
         id="path3000" />
      <path
         d="m 201.37277,460.74387 c -0.15627,0 -0.3646,-0.0781 -0.625,-0.23438 -0.78127,-0.41666 -1.95314,-0.93749 -3.51563,-1.5625 -1.25001,3.17709 -2.94272,5.28646 -5.07812,6.32813 -0.26043,0.10416 -0.33855,0.0521 -0.23438,-0.15625 1.97916,-1.51042 3.46353,-3.67188 4.45313,-6.48438 -2.13543,-0.72916 -4.21876,-1.11978 -6.25,-1.17187 -0.83334,1.82292 -1.58855,3.07292 -2.26563,3.75 -0.57292,0.57291 -1.19792,0.85937 -1.875,0.85937 -0.52083,0 -0.91146,-0.13021 -1.17187,-0.39062 -0.3125,-0.3125 -0.46875,-0.72917 -0.46875,-1.25 0,-0.46875 0.20833,-0.9375 0.625,-1.40625 0.98958,-1.09375 2.49999,-1.77083 4.53125,-2.03125 0.78124,-1.77083 1.64062,-3.95833 2.57812,-6.5625 0.10416,-0.26041 0.026,-0.39062 -0.23437,-0.39063 -0.88543,0.31251 -1.7448,0.59897 -2.57813,0.85938 -0.57292,0.15626 -0.96354,0.33855 -1.17187,0.54687 -0.31251,0.26043 -0.59896,0.23439 -0.85938,-0.0781 -0.625,-0.72916 -0.9375,-1.30207 -0.9375,-1.71875 -0.0521,-0.26041 0.026,-0.31249 0.23438,-0.15625 0.31249,0.62501 0.70312,0.93751 1.17187,0.9375 0.26041,10e-6 0.59896,-0.0521 1.01563,-0.15625 1.19791,-0.26041 2.39582,-0.54686 3.59375,-0.85938 l 0.3125,-0.39062 c 0.5729,0.15626 0.98957,0.36459 1.25,0.625 0.2604,0.26043 0.15624,0.46876 -0.3125,0.625 -0.26043,0.10418 -0.52085,0.44272 -0.78125,1.01562 -0.78126,1.92709 -1.58855,3.80209 -2.42188,5.625 2.29166,0.0521 4.37499,0.36459 6.25,0.9375 0.15624,-0.31249 0.33853,-0.88541 0.54688,-1.71875 0.0521,-0.20832 0.10415,-0.62499 0.15625,-1.25 0.0521,-0.62499 -0.23439,-1.04166 -0.85938,-1.25 -0.31251,-0.10416 -0.31251,-0.20832 0,-0.3125 0.83332,10e-6 1.64061,0.33855 2.42188,1.01563 0.36457,0.31251 0.36457,0.54688 0,0.70312 -0.31252,0.10418 -0.54689,0.44272 -0.70313,1.01563 -0.26043,0.88542 -0.4948,1.5625 -0.70312,2.03125 2.29165,0.72917 3.59373,1.19792 3.90625,1.40625 0.2604,0.15625 0.3906,0.41667 0.39062,0.78125 -2e-5,0.3125 -0.13022,0.46875 -0.39062,0.46875 z m -12.10938,-3.20313 c -1.66667,0.36459 -2.86458,0.91146 -3.59375,1.64063 -0.41667,0.41667 -0.625,0.88542 -0.625,1.40625 0,0.67708 0.3125,1.01562 0.9375,1.01562 0.46875,0 0.9375,-0.23437 1.40625,-0.70312 0.41667,-0.41667 1.04166,-1.53646 1.875,-3.35938 z"
         style=""
         id="path3002" />
    </g>
  </g>
</svg>
