<?xml version="1.0" encoding="UTF-8" standalone="no"?>
<!-- Created with Inkscape (http://www.inkscape.org/) -->

<svg
   xmlns:dc="http://purl.org/dc/elements/1.1/"
   xmlns:cc="http://creativecommons.org/ns#"
   xmlns:rdf="http://www.w3.org/1999/02/22-rdf-syntax-ns#"
   xmlns:svg="http://www.w3.org/2000/svg"
   xmlns="http://www.w3.org/2000/svg"
   xmlns:sodipodi="http://sodipodi.sourceforge.net/DTD/sodipodi-0.dtd"
   xmlns:inkscape="http://www.inkscape.org/namespaces/inkscape"
   width="77.34375"
   height="18.28125"
   id="svg2"
   version="1.1"
   inkscape:version="0.48.4 r9939"
   sodipodi:docname="sigenA.svg">
  <defs
     id="defs4" />
  <sodipodi:namedview
     id="base"
     pagecolor="#ffffff"
     bordercolor="#666666"
     borderopacity="1.0"
     inkscape:pageopacity="0.0"
     inkscape:pageshadow="2"
     inkscape:zoom="5.08"
     inkscape:cx="48.87868"
     inkscape:cy="-11.035674"
     inkscape:document-units="px"
     inkscape:current-layer="layer1"
     showgrid="false"
     fit-margin-top="0"
     fit-margin-left="0"
     fit-margin-right="0"
     fit-margin-bottom="0"
     inkscape:window-width="1366"
     inkscape:window-height="706"
     inkscape:window-x="-8"
     inkscape:window-y="-8"
     inkscape:window-maximized="1" />
  <metadata
     id="metadata7">
    <rdf:RDF>
      <cc:Work
         rdf:about="">
        <dc:format>image/svg+xml</dc:format>
        <dc:type
           rdf:resource="http://purl.org/dc/dcmitype/StillImage" />
        <dc:title></dc:title>
      </cc:Work>
    </rdf:RDF>
  </metadata>
  <g
     inkscape:label="レイヤー 1"
     inkscape:groupmode="layer"
     id="layer1"
     transform="translate(-210.52965,-451.54919)">
    <text
       xml:space="preserve"
       style="font-size:20px;font-style:normal;font-variant:normal;font-weight:normal;font-stretch:normal;line-height:125%;letter-spacing:0px;word-spacing:0px;fill:#000000;fill-opacity:1;stroke:none;font-family:MS Mincho;-inkscape-font-specification:MS Mincho"
       x="40"
       y="335.21933"
       id="text2985"
       sodipodi:linespacing="125%"><tspan
         sodipodi:role="line"
         id="tspan2987"
         x="40"
         y="335.21933" /></text>
    <g
       style="font-size:20px;font-style:normal;font-variant:normal;font-weight:normal;font-stretch:normal;line-height:125%;letter-spacing:0px;word-spacing:0px;fill:#000000;fill-opacity:1;stroke:none;font-family:MS Mincho;-inkscape-font-specification:MS Mincho"
       id="text2994">
      <path
         d="m 210.52965,453.89294 14.6875,0 1.17187,-1.17187 1.48438,1.09375 c 0.31248,0.26043 0.31248,0.44272 0,0.54687 l -3.04688,0 0,13.125 c -10e-6,0.52084 -0.15626,0.9375 -0.46875,1.25 -0.3646,0.36459 -0.75522,0.54688 -1.17187,0.54688 -0.31252,0 -0.46877,-0.13021 -0.46875,-0.39063 -0.0521,-0.26041 -0.20835,-0.4427 -0.46875,-0.54687 l -1.17188,-0.3125 c -0.26043,-0.10417 -0.26043,-0.20833 0,-0.3125 l 2.03125,0 c 0.46874,0 0.70311,-0.23438 0.70313,-0.70313 l 0,-12.65625 -13.28125,0 z m 4.21875,8.4375 4.375,0 0,-4.21875 -4.375,0 z m 0.15625,-4.6875 3.98437,0 0.46875,-0.625 1.09375,0.78125 c 0.31249,0.26043 0.20832,0.44272 -0.3125,0.54688 l 0,5.46875 c -0.67709,0.625 -1.01563,0.65104 -1.01562,0.0781 l 0,-1.09375 -4.375,0 0,1.79688 c -0.67709,0.625 -1.01563,0.65104 -1.01563,0.0781 l 0,-7.73437 z"
         style=""
         id="path3029" />
      <path
         d="m 243.1859,457.56482 c 0.83332,2.81251 2.55206,4.73959 5.15625,5.78125 -0.57294,0.20834 -1.04169,0.54688 -1.40625,1.01562 -1.9271,-1.51041 -3.22918,-3.48957 -3.90625,-5.9375 -0.57293,3.43751 -2.63022,5.8073 -6.17188,7.10938 -0.20834,0 -0.23438,-0.10416 -0.0781,-0.3125 3.3854,-1.82291 5.15623,-4.37499 5.3125,-7.65625 l -1.95313,0 c -1.25001,3.12501 -2.9948,5.39063 -5.23437,6.79687 -0.26042,0.0521 -0.31251,-0.026 -0.15625,-0.23437 1.14582,-1.04166 2.0052,-2.05729 2.57812,-3.04688 -0.31251,0.15626 -0.54688,-0.0521 -0.70312,-0.625 -0.20834,-0.52082 -0.54688,-0.98957 -1.01563,-1.40625 -0.625,0.88543 -1.25,1.61459 -1.875,2.1875 -0.26042,0.10418 -0.3125,0.026 -0.15625,-0.23437 1.09375,-1.56249 1.92708,-3.02082 2.5,-4.375 l -1.01562,0.15625 -1.95313,1.48437 0,2.8125 c 0,1.04168 -0.10417,2.03126 -0.3125,2.96875 1.71875,0.62501 2.57812,1.38022 2.57813,2.26563 -1e-5,0.41667 -0.15626,0.625 -0.46875,0.625 -0.20834,0 -0.44272,-0.28646 -0.70313,-0.85938 -0.36459,-0.78124 -0.83333,-1.35416 -1.40625,-1.71875 -0.52083,2.29167 -1.66667,4.08855 -3.4375,5.39063 -0.20833,0.0521 -0.26041,-0.026 -0.15625,-0.23438 1.92708,-2.29166 2.89062,-4.94791 2.89063,-7.96875 l 0,-9.45312 1.32812,0.23437 c 0.41666,0.26044 0.3125,0.44273 -0.3125,0.54688 l 0,5.07812 1.71875,-2.26562 1.32813,0.70312 c 0.52082,-1.45832 0.88541,-2.86456 1.09375,-4.21875 l 1.17187,0.3125 c 0.57291,0.20835 0.49478,0.41669 -0.23437,0.625 -0.10418,0.3646 -0.26043,0.83335 -0.46875,1.40625 l 1.875,0 0.39062,-0.625 1.32813,1.01563 c 0.2604,0.26043 0.10415,0.44272 -0.46875,0.54687 -0.15626,0.57293 -0.33856,1.11981 -0.54688,1.64063 l 1.875,0 0,-5 1.32813,0.23437 c 0.41665,0.26044 0.31248,0.44273 -0.3125,0.54688 l 0,4.21875 2.26562,0 1.01563,-1.01563 1.25,0.9375 c 0.31248,0.26043 0.31248,0.44272 0,0.54688 z m 1.32812,7.26562 c -0.20835,-0.20833 -0.1823,-0.28645 0.0781,-0.23437 2.18748,1.09375 3.28123,2.08333 3.28125,2.96875 -2e-5,0.46875 -0.18231,0.70312 -0.54688,0.70312 -0.26043,0 -0.46877,-0.15625 -0.625,-0.46875 -0.62501,-1.19791 -1.35418,-2.18749 -2.1875,-2.96875 z m -2.8125,0.39063 c 1.51041,1.04167 2.26561,2.00521 2.26563,2.89062 -2e-5,0.46875 -0.13023,0.70313 -0.39063,0.70313 -0.36459,0 -0.59897,-0.23438 -0.70312,-0.70313 -0.20835,-0.98958 -0.65106,-1.87499 -1.32813,-2.65625 -0.15626,-0.20833 -0.10418,-0.28645 0.15625,-0.23437 z m -3.04687,0.70312 c -0.0521,-0.26041 0.026,-0.31249 0.23437,-0.15625 0.93749,1.04167 1.40624,1.92709 1.40625,2.65625 -10e-6,0.625 -0.20834,0.9375 -0.625,0.9375 -0.31251,0 -0.46876,-0.49479 -0.46875,-1.48437 -10e-6,-0.57292 -0.1823,-1.22396 -0.54687,-1.95313 z m -2.34375,-0.23437 c 0.0521,1.25 -0.0521,2.21354 -0.3125,2.89062 -0.26043,0.625 -0.67709,0.9375 -1.25,0.9375 -0.36459,0 -0.54688,-0.15625 -0.54688,-0.46875 0,-0.26041 0.20833,-0.57291 0.625,-0.9375 0.625,-0.52083 1.01562,-1.32812 1.17188,-2.42187 0.10416,-0.3125 0.20832,-0.3125 0.3125,0 z m 1.32812,-5.07813 c 0.46874,-0.72915 0.83333,-1.43228 1.09375,-2.10937 -0.31251,0.26043 -0.57292,0.10418 -0.78125,-0.46875 -0.26042,-0.52082 -0.62501,-0.93749 -1.09375,-1.25 -0.46875,0.93751 -0.83334,1.58855 -1.09375,1.95312 0.9375,0.46876 1.56249,1.09376 1.875,1.875 z m -0.0781,-5.625 c -0.20834,0.57293 -0.41668,1.09377 -0.625,1.5625 0.83332,0.31252 1.48436,0.85939 1.95312,1.64063 0.41666,-0.88541 0.72916,-1.95311 0.9375,-3.20313 z m 6.64062,-1.71875 c 1.30207,0.6771 1.95311,1.32814 1.95313,1.95313 -2e-5,0.31251 -0.13023,0.46876 -0.39063,0.46875 -0.26043,10e-6 -0.46876,-0.18228 -0.625,-0.54688 -0.31251,-0.67707 -0.6771,-1.22394 -1.09375,-1.64062 -0.15626,-0.20832 -0.10418,-0.28644 0.15625,-0.23438 z m -14.0625,7.89063 c -0.36458,10e-6 -0.54687,-0.20833 -0.54687,-0.625 0,-0.20833 0.0781,-0.4427 0.23437,-0.70313 0.41667,-0.67707 0.625,-1.64061 0.625,-2.89062 0,-0.31249 0.10417,-0.31249 0.3125,0 0.41667,1.14584 0.52083,2.10938 0.3125,2.89062 -0.26042,0.88543 -0.57292,1.32814 -0.9375,1.32813 z"
         style=""
         id="path3031" />
      <path
         d="m 257.95152,466.70544 c 1.30208,10e-6 2.57812,10e-6 3.82813,0 0.83332,10e-6 1.48436,-0.0521 1.95312,-0.15625 0.46874,-0.10416 0.72915,-0.15624 0.78125,-0.15625 0.31249,10e-6 0.62499,0.20834 0.9375,0.625 0.31249,0.41667 0.13019,0.625 -0.54687,0.625 -2.34377,0 -4.68751,0 -7.03125,0 -1.87501,0 -3.28126,-0.54687 -4.21875,-1.64062 -0.57292,-0.67708 -0.93751,-1.51041 -1.09375,-2.5 0.10416,-0.20833 0.20833,-0.18229 0.3125,0.0781 0.26041,0.67709 0.65103,1.27605 1.17187,1.79688 0.88541,0.88542 2.1875,1.32813 3.90625,1.32812 z m 4.84375,-11.25 c 0.15624,0.15627 0.31249,0.33856 0.46875,0.54688 0.2604,0.36459 0.15624,0.54689 -0.3125,0.54687 -0.36459,2e-5 -0.91147,2e-5 -1.64062,0 -0.62501,2e-5 -1.19793,0.0781 -1.71875,0.23438 -1.04168,0.31251 -2.18751,0.8073 -3.4375,1.48437 -0.31251,0.15626 -0.39063,0.10418 -0.23438,-0.15625 0.78125,-0.62499 1.6927,-1.17186 2.73438,-1.64062 -1.25001,-0.10416 -2.21355,-0.31249 -2.89063,-0.625 -0.88542,-0.41665 -1.53646,-0.96353 -1.95312,-1.64063 -1e-5,-0.2604 0.10416,-0.28644 0.3125,-0.0781 0.78124,0.88543 2.36978,1.32814 4.76562,1.32812 1.71874,2e-5 2.81249,-0.0781 3.28125,-0.23437 0.20832,-0.0521 0.41666,0.026 0.625,0.23437 z m 4.6875,-2.8125 c 0.31248,0.26044 0.52082,0.57294 0.625,0.9375 0.10415,0.41668 -2e-5,0.6771 -0.3125,0.78125 -0.31252,0.10418 -0.54689,-0.026 -0.70312,-0.39062 -0.3646,-0.83332 -1.04169,-1.56249 -2.03125,-2.1875 -0.10418,-0.15623 -0.0781,-0.20832 0.0781,-0.15625 0.8854,0.15627 1.66665,0.49481 2.34375,1.01562 z m -1.95312,1.32813 c 0.31248,0.26043 0.52081,0.57293 0.625,0.9375 0.10415,0.41668 -2e-5,0.67709 -0.3125,0.78125 -0.31252,0.10418 -0.54689,-0.026 -0.70313,-0.39063 -0.3646,-0.83332 -1.04168,-1.56248 -2.03125,-2.1875 -0.10418,-0.15623 -0.0781,-0.20831 0.0781,-0.15625 0.8854,0.15627 1.66665,0.49481 2.34375,1.01563 z"
         style=""
         id="path3033" />
      <path
         d="m 287.48277,464.83044 c -0.15627,10e-6 -0.3646,-0.0781 -0.625,-0.23437 -0.78126,-0.41666 -1.95314,-0.9375 -3.51562,-1.5625 -1.25002,3.17708 -2.94272,5.28646 -5.07813,6.32812 -0.26042,0.10417 -0.33855,0.0521 -0.23437,-0.15625 1.97915,-1.51041 3.46353,-3.67187 4.45312,-6.48437 -2.13543,-0.72916 -4.21876,-1.11979 -6.25,-1.17188 -0.83334,1.82293 -1.58854,3.07292 -2.26562,3.75 -0.57292,0.57292 -1.19792,0.85938 -1.875,0.85938 -0.52084,0 -0.91146,-0.13021 -1.17188,-0.39063 -0.3125,-0.31249 -0.46875,-0.72916 -0.46875,-1.25 0,-0.46874 0.20833,-0.93749 0.625,-1.40625 0.98958,-1.09374 2.5,-1.77082 4.53125,-2.03125 0.78125,-1.77082 1.64062,-3.95832 2.57813,-6.5625 0.10416,-0.2604 0.026,-0.39061 -0.23438,-0.39062 -0.88542,0.31251 -1.7448,0.59897 -2.57812,0.85937 -0.57292,0.15627 -0.96355,0.33856 -1.17188,0.54688 -0.3125,0.26043 -0.59896,0.23439 -0.85937,-0.0781 -0.62501,-0.72915 -0.93751,-1.30207 -0.9375,-1.71875 -0.0521,-0.2604 0.026,-0.31248 0.23437,-0.15625 0.3125,0.62502 0.70312,0.93752 1.17188,0.9375 0.26041,2e-5 0.59895,-0.0521 1.01562,-0.15625 1.19791,-0.2604 2.39583,-0.54686 3.59375,-0.85937 l 0.3125,-0.39063 c 0.57291,0.15627 0.98958,0.3646 1.25,0.625 0.26041,0.26043 0.15624,0.46877 -0.3125,0.625 -0.26042,0.10418 -0.52084,0.44273 -0.78125,1.01563 -0.78126,1.92709 -1.58855,3.80209 -2.42187,5.625 2.29165,0.0521 4.37499,0.36459 6.25,0.9375 0.15623,-0.31249 0.33853,-0.88541 0.54687,-1.71875 0.0521,-0.20833 0.10416,-0.62499 0.15625,-1.25 0.0521,-0.62499 -0.23439,-1.04166 -0.85937,-1.25 -0.31252,-0.10416 -0.31252,-0.20832 0,-0.3125 0.83332,10e-6 1.64061,0.33855 2.42187,1.01562 0.36457,0.31251 0.36457,0.54689 0,0.70313 -0.31251,0.10417 -0.54689,0.44272 -0.70312,1.01562 -0.26043,0.88543 -0.49481,1.56251 -0.70313,2.03125 2.29165,0.72918 3.59373,1.19793 3.90625,1.40625 0.2604,0.15626 0.39061,0.41667 0.39063,0.78125 -2e-5,0.31251 -0.13023,0.46876 -0.39063,0.46875 z m -12.10937,-3.20312 c -1.66667,0.36459 -2.86459,0.91146 -3.59375,1.64062 -0.41667,0.41668 -0.625,0.88542 -0.625,1.40625 0,0.67709 0.3125,1.01563 0.9375,1.01563 0.46874,0 0.93749,-0.23437 1.40625,-0.70313 0.41666,-0.41666 1.04166,-1.53645 1.875,-3.35937 z"
         style=""
         id="path3035" />
    </g>
    <flowRoot
       xml:space="preserve"
       id="flowRoot2998"
       style="font-size:20px;font-style:normal;font-variant:normal;font-weight:normal;font-stretch:normal;line-height:125%;letter-spacing:0px;word-spacing:0px;fill:#000000;fill-opacity:1;stroke:none;font-family:MS Mincho;-inkscape-font-specification:MS Mincho"
       transform="translate(221.17187,453.02066)"><flowRegion
         id="flowRegion3000"><rect
           id="rect3002"
           width="75"
           height="20.866142"
           x="-9.2519684"
           y="-4.4346704" /></flowRegion><flowPara
         id="flowPara3004"></flowPara></flowRoot>  </g>
</svg>
