<?xml version="1.0" encoding="UTF-8" standalone="no"?>
<!-- Created with Inkscape (http://www.inkscape.org/) -->

<svg
   xmlns:dc="http://purl.org/dc/elements/1.1/"
   xmlns:cc="http://creativecommons.org/ns#"
   xmlns:rdf="http://www.w3.org/1999/02/22-rdf-syntax-ns#"
   xmlns:svg="http://www.w3.org/2000/svg"
   xmlns="http://www.w3.org/2000/svg"
   xmlns:sodipodi="http://sodipodi.sourceforge.net/DTD/sodipodi-0.dtd"
   xmlns:inkscape="http://www.inkscape.org/namespaces/inkscape"
   width="96.875"
   height="18.203125"
   id="svg2"
   version="1.1"
   inkscape:version="0.48.4 r9939"
   sodipodi:docname="sigenA.svg">
  <defs
     id="defs4" />
  <sodipodi:namedview
     id="base"
     pagecolor="#ffffff"
     bordercolor="#666666"
     borderopacity="1.0"
     inkscape:pageopacity="0.0"
     inkscape:pageshadow="2"
     inkscape:zoom="5.08"
     inkscape:cx="56.758852"
     inkscape:cy="5.0156366"
     inkscape:document-units="px"
     inkscape:current-layer="layer1"
     showgrid="false"
     fit-margin-top="0"
     fit-margin-left="0"
     fit-margin-right="0"
     fit-margin-bottom="0"
     inkscape:window-width="1366"
     inkscape:window-height="706"
     inkscape:window-x="-8"
     inkscape:window-y="-8"
     inkscape:window-maximized="1" />
  <metadata
     id="metadata7">
    <rdf:RDF>
      <cc:Work
         rdf:about="">
        <dc:format>image/svg+xml</dc:format>
        <dc:type
           rdf:resource="http://purl.org/dc/dcmitype/StillImage" />
        <dc:title />
      </cc:Work>
    </rdf:RDF>
  </metadata>
  <g
     inkscape:label="レイヤー 1"
     inkscape:groupmode="layer"
     id="layer1"
     transform="translate(-202.64948,-451.9306)">
    <text
       xml:space="preserve"
       style="font-size:20px;font-style:normal;font-variant:normal;font-weight:normal;font-stretch:normal;line-height:125%;letter-spacing:0px;word-spacing:0px;fill:#000000;fill-opacity:1;stroke:none;font-family:MS Mincho;-inkscape-font-specification:MS Mincho"
       x="40"
       y="335.21933"
       id="text2985"
       sodipodi:linespacing="125%"><tspan
         sodipodi:role="line"
         id="tspan2987"
         x="40"
         y="335.21933" /></text>
    <g
       style="font-size:20px;font-style:normal;font-variant:normal;font-weight:normal;font-stretch:normal;line-height:125%;letter-spacing:0px;word-spacing:0px;fill:#000000;fill-opacity:1;stroke:none;font-family:MS Mincho;-inkscape-font-specification:MS Mincho"
       id="text3017">
      <path
         d="m 211.1651,453.02435 c -0.26043,0.52085 -0.52084,0.96356 -0.78125,1.32813 l 6.71875,0 0.54688,-0.70313 1.875,1.32813 c 0.31248,0.31251 0.15623,0.46876 -0.46875,0.46875 -0.67711,0.0521 -1.14585,0.1823 -1.40625,0.39062 l -1.25,1.09375 c -0.31252,0.15626 -0.39064,0.0781 -0.23438,-0.23437 l 1.09375,-1.875 -4.0625,0 c 1.40624,2.96876 3.82811,4.73959 7.26563,5.3125 -0.83336,0.20834 -1.32815,0.54688 -1.48438,1.01562 -2.91668,-1.19791 -4.89585,-3.17707 -5.9375,-5.9375 -0.57293,2.50001 -2.34376,4.16668 -5.3125,5 -0.31251,10e-6 -0.31251,-0.10416 0,-0.3125 2.76041,-1.24999 4.24478,-2.94269 4.45313,-5.07812 l -2.03125,0 c -0.88543,1.30209 -1.79689,2.29168 -2.73438,2.96875 -0.26042,0.10418 -0.31251,0.026 -0.15625,-0.23438 1.45833,-1.61457 2.49999,-3.48957 3.125,-5.625 l 1.64063,0.78125 c 0.2604,0.26044 -0.0261,0.3646 -0.85938,0.3125 z m -6.64062,4.45313 3.82812,-4.76563 c 0.15624,-0.10415 0.23437,-0.0521 0.23438,0.15625 l -3.04688,4.53125 c -0.20834,0.31251 -0.39063,0.72918 -0.54687,1.25 -0.10417,0.57293 -0.10417,1.17189 0,1.79688 0.10416,0.62501 -0.0781,0.93751 -0.54688,0.9375 -0.36459,10e-6 -0.54688,-0.23437 -0.54687,-0.70313 -1e-5,-0.15624 0.026,-0.41666 0.0781,-0.78125 0.15625,-1.09374 0.0521,-1.71874 -0.3125,-1.875 l -1.01562,-0.39062 0,-0.15625 z m 4.76562,10.85937 c -2.13542,0.98959 -4.21875,1.58854 -6.25,1.79688 -0.26042,-0.0521 -0.3125,-0.15625 -0.15625,-0.3125 2.70833,-0.625 4.73958,-1.53646 6.09375,-2.73438 l 1.25,0.9375 c 0.26041,0.26042 -0.0521,0.36459 -0.9375,0.3125 z m 2.96875,-1.09375 c 1.97915,0.10417 3.64582,0.44271 5,1.01563 0.72915,0.36458 1.09373,0.78125 1.09375,1.25 -2e-5,0.36458 -0.18231,0.54687 -0.54687,0.54687 -0.10419,0 -0.28648,-0.10417 -0.54688,-0.3125 -1.04168,-0.78125 -2.73439,-1.51041 -5.07812,-2.1875 -0.20835,-0.15625 -0.18231,-0.26041 0.0781,-0.3125 z m -5.23437,-4.29687 0,1.32812 8.51562,0 0,-1.32812 z m 8.51562,-0.46875 0,-1.40625 -8.51562,0 0,1.40625 z m -0.23437,-1.875 0.54687,-0.70313 1.25,0.85938 c 0.41665,0.31251 0.23436,0.52084 -0.54687,0.625 l 0,5.39062 c -0.6771,0.625 -1.01564,0.65105 -1.01563,0.0781 l 0,-0.15625 -8.51562,0 0,0.78125 c -0.67709,0.625 -1.01563,0.65104 -1.01563,0.0781 l 0,-7.57812 1.17188,0.625 z m -8.28125,5.625 8.51562,0 0,-1.48438 -8.51562,0 z m -1.25,-12.03125 c -1e-5,0.3646 -0.13022,0.54689 -0.39063,0.54687 -0.15625,2e-5 -0.3125,-0.10415 -0.46875,-0.3125 -0.26042,-0.5729 -0.80729,-1.11977 -1.64062,-1.64062 -0.26042,-0.15624 -0.20834,-0.23436 0.15625,-0.23438 1.56249,0.31252 2.34374,0.85939 2.34375,1.64063 z"
         style=""
         id="path2991" />
      <path
         d="m 233.74323,456.77435 3.51562,0 0.46875,-0.625 1.09375,0.78125 c 0.31248,0.26043 0.20832,0.44272 -0.3125,0.54688 l 0,5.85937 c -0.6771,0.62501 -1.01564,0.65105 -1.01562,0.0781 l 0,-0.625 -2.26563,0 0,5.39062 c -1e-5,0.57292 -0.18231,1.01563 -0.54687,1.32813 -0.20835,0.20833 -0.46877,0.3125 -0.78125,0.3125 -0.20835,0 -0.31252,-0.13021 -0.3125,-0.39063 -2e-5,-0.26041 -0.15627,-0.44271 -0.46875,-0.54687 l -1.01563,-0.15625 c -0.20834,-0.10417 -0.20834,-0.20834 0,-0.3125 l 1.5625,0 c 0.36457,0 0.54686,-0.18229 0.54688,-0.54688 l 0,-5.07812 -2.5,0 0,0.70312 c -0.6771,0.62501 -1.01564,0.65105 -1.01563,0.0781 l 0,-7.42188 1.17188,0.625 1.40625,0 0.39062,-2.5 -4.6875,0 0,6.5625 c -1e-5,3.12501 -1.09376,5.9375 -3.28125,8.4375 -0.20834,0.10417 -0.3125,0.0521 -0.3125,-0.15625 1.71874,-2.29166 2.57812,-5.28645 2.57813,-8.98437 l 0,-7.10938 1.17187,0.78125 8.75,0 1.01563,-1.01562 1.25,0.9375 c 0.31248,0.26043 0.31248,0.44272 0,0.54687 l -5.39063,0 z m -1.79688,8.59375 c -1.56251,2.08334 -3.12501,3.56771 -4.6875,4.45313 -0.15626,0 -0.20834,-0.0781 -0.15625,-0.23438 1.87499,-1.5625 3.2552,-3.38541 4.14063,-5.46875 l 1.25,0.70313 c 0.41665,0.36458 0.23436,0.54688 -0.54688,0.54687 z m 4.29688,-0.46875 c -0.10419,-0.15624 -0.0521,-0.23437 0.15625,-0.23437 1.24998,0.36458 2.34373,1.01563 3.28125,1.95312 0.62498,0.625 0.93748,1.14584 0.9375,1.5625 -2e-5,0.46875 -0.18232,0.70313 -0.54688,0.70313 -0.20835,0 -0.41668,-0.20834 -0.625,-0.625 -0.6771,-1.35417 -1.74481,-2.47396 -3.20312,-3.35938 z m -12.65625,1.09375 c -1e-5,-0.67708 -0.15626,-1.04166 -0.46875,-1.09375 l -1.17188,-0.15625 0,-0.3125 1.48438,0 3.51562,-9.53125 c 0.26041,-0.20832 0.41666,-0.18227 0.46875,0.0781 l -2.8125,9.29687 c -0.15625,0.52084 -0.20834,0.96355 -0.15625,1.32813 0.0521,0.9375 0.15625,2.03125 0.3125,3.28125 0,0.78125 -0.26042,1.17187 -0.78125,1.17187 -0.57292,0 -0.83333,-0.41666 -0.78125,-1.25 0.20833,-0.83333 0.33854,-1.77083 0.39063,-2.8125 z m 2.65625,-11.40625 c -1e-5,0.41668 -0.1823,0.62502 -0.54688,0.625 -0.3125,2e-5 -0.57292,-0.28644 -0.78125,-0.85937 -0.20834,-0.46874 -0.70313,-1.01561 -1.48437,-1.64063 -0.10417,-0.15623 -0.0521,-0.23436 0.15625,-0.23437 1.77082,0.62501 2.65624,1.32814 2.65625,2.10937 z m -4.14063,2.03125 c 1.71875,0.52085 2.57812,1.25001 2.57813,2.1875 -1e-5,0.41668 -0.15626,0.62501 -0.46875,0.625 -0.31251,10e-6 -0.52084,-0.18228 -0.625,-0.54687 -0.26042,-0.83332 -0.8073,-1.51041 -1.64063,-2.03125 -0.20833,-0.20832 -0.15625,-0.28645 0.15625,-0.23438 z m 15.39063,0.625 -5.78125,0 0,2.26563 5.78125,0 z m 0,2.73438 -5.78125,0 0,2.34375 5.78125,0 z"
         style=""
         id="path2993" />
      <path
         d="m 250.46198,467.2431 c 1.30207,0 2.57811,0 3.82812,0 0.83332,0 1.48436,-0.0521 1.95313,-0.15625 0.46873,-0.10416 0.72915,-0.15625 0.78125,-0.15625 0.31248,0 0.62498,0.20834 0.9375,0.625 0.31248,0.41667 0.13019,0.625 -0.54688,0.625 -2.34376,0 -4.68751,0 -7.03125,0 -1.87501,0 -3.28126,-0.54687 -4.21875,-1.64062 -0.57292,-0.67708 -0.9375,-1.51042 -1.09375,-2.5 0.10416,-0.20833 0.20833,-0.18229 0.3125,0.0781 0.26041,0.67709 0.65104,1.27605 1.17188,1.79688 0.88541,0.88542 2.18749,1.32812 3.90625,1.32812 z m 4.84375,-11.25 c 0.15623,0.15627 0.31248,0.33856 0.46875,0.54688 0.2604,0.36459 0.15623,0.54688 -0.3125,0.54687 -0.3646,10e-6 -0.91148,10e-6 -1.64063,0 -0.62501,10e-6 -1.19793,0.0781 -1.71875,0.23438 -1.04168,0.31251 -2.18751,0.8073 -3.4375,1.48437 -0.31251,0.15626 -0.39063,0.10418 -0.23437,-0.15625 0.78124,-0.62499 1.69269,-1.17186 2.73437,-1.64062 -1.25001,-0.10416 -2.21355,-0.31249 -2.89062,-0.625 -0.88543,-0.41666 -1.53647,-0.96353 -1.95313,-1.64063 0,-0.2604 0.10416,-0.28644 0.3125,-0.0781 0.78124,0.88543 2.36978,1.32814 4.76563,1.32812 1.71873,2e-5 2.81248,-0.0781 3.28125,-0.23437 0.20832,-0.0521 0.41665,0.026 0.625,0.23437 z m 4.6875,-2.8125 c 0.31248,0.26043 0.52081,0.57293 0.625,0.9375 0.10414,0.41668 -2e-5,0.6771 -0.3125,0.78125 -0.31252,0.10418 -0.5469,-0.026 -0.70313,-0.39062 -0.3646,-0.83332 -1.04168,-1.56249 -2.03125,-2.1875 -0.10418,-0.15624 -0.0781,-0.20832 0.0781,-0.15625 0.88539,0.15626 1.66664,0.49481 2.34375,1.01562 z m -1.95313,1.32813 c 0.31248,0.26043 0.52082,0.57293 0.625,0.9375 0.10415,0.41668 -2e-5,0.67709 -0.3125,0.78125 -0.31252,0.10418 -0.54689,-0.026 -0.70312,-0.39063 -0.3646,-0.83332 -1.04169,-1.56248 -2.03125,-2.1875 -0.10419,-0.15623 -0.0781,-0.20832 0.0781,-0.15625 0.8854,0.15627 1.66665,0.49481 2.34375,1.01563 z"
         style=""
         id="path2995" />
      <path
         d="m 279.99323,465.3681 c -0.15627,10e-6 -0.36461,-0.0781 -0.625,-0.23437 -0.78127,-0.41666 -1.95315,-0.9375 -3.51563,-1.5625 -1.25001,3.17708 -2.94272,5.28646 -5.07812,6.32812 -0.26043,0.10417 -0.33856,0.0521 -0.23438,-0.15625 1.97916,-1.51041 3.46353,-3.67187 4.45313,-6.48437 -2.13543,-0.72916 -4.21876,-1.11979 -6.25,-1.17188 -0.83334,1.82292 -1.58855,3.07292 -2.26563,3.75 -0.57292,0.57292 -1.19792,0.85938 -1.875,0.85938 -0.52084,0 -0.91146,-0.13021 -1.17187,-0.39063 -0.31251,-0.31249 -0.46876,-0.72916 -0.46875,-1.25 -10e-6,-0.46874 0.20833,-0.93749 0.625,-1.40625 0.98958,-1.09374 2.49999,-1.77082 4.53125,-2.03125 0.78124,-1.77082 1.64061,-3.95832 2.57812,-6.5625 0.10416,-0.2604 0.026,-0.39061 -0.23437,-0.39062 -0.88543,0.31251 -1.7448,0.59897 -2.57813,0.85937 -0.57292,0.15627 -0.96355,0.33856 -1.17187,0.54688 -0.31251,0.26043 -0.59897,0.23439 -0.85938,-0.0781 -0.625,-0.72915 -0.9375,-1.30207 -0.9375,-1.71875 -0.0521,-0.2604 0.026,-0.31248 0.23438,-0.15625 0.31249,0.62502 0.70312,0.93752 1.17187,0.9375 0.26041,2e-5 0.59895,-0.0521 1.01563,-0.15625 1.1979,-0.2604 2.39582,-0.54686 3.59375,-0.85937 l 0.3125,-0.39063 c 0.5729,0.15627 0.98957,0.3646 1.25,0.625 0.2604,0.26043 0.15623,0.46877 -0.3125,0.625 -0.26043,0.10418 -0.52085,0.44272 -0.78125,1.01563 -0.78126,1.92709 -1.58855,3.80209 -2.42188,5.625 2.29166,0.0521 4.37499,0.36459 6.25,0.9375 0.15624,-0.3125 0.33853,-0.88541 0.54688,-1.71875 0.0521,-0.20833 0.10415,-0.62499 0.15625,-1.25 0.0521,-0.62499 -0.23439,-1.04166 -0.85938,-1.25 -0.31251,-0.10416 -0.31251,-0.20832 0,-0.3125 0.83332,10e-6 1.64061,0.33855 2.42188,1.01562 0.36456,0.31251 0.36456,0.54689 0,0.70313 -0.31252,0.10417 -0.5469,0.44271 -0.70313,1.01562 -0.26043,0.88543 -0.49481,1.56251 -0.70312,2.03125 2.29164,0.72917 3.59373,1.19792 3.90625,1.40625 0.26039,0.15626 0.3906,0.41667 0.39062,0.78125 -2e-5,0.31251 -0.13023,0.46876 -0.39062,0.46875 z m -12.10938,-3.20312 c -1.66667,0.36459 -2.86459,0.91146 -3.59375,1.64062 -0.41667,0.41667 -0.625,0.88542 -0.625,1.40625 0,0.67709 0.3125,1.01563 0.9375,1.01563 0.46875,0 0.9375,-0.23437 1.40625,-0.70313 0.41666,-0.41666 1.04166,-1.53645 1.875,-3.35937 z"
         style=""
         id="path2997" />
      <path
         d="m 291.08698,454.7431 1.01562,0 5.15625,11.48438 c 0.20832,0.41667 0.46873,0.78125 0.78125,1.09375 0.31248,0.26042 0.72915,0.39062 1.25,0.39062 l 0.23438,0 0,0.46875 -5.78125,0 0,-0.46875 0.54687,0 c 0.46874,0 0.83332,-0.1302 1.09375,-0.39062 0.2604,-0.26042 0.28644,-0.625 0.0781,-1.09375 l -1.32813,-3.04688 -5.85937,0 -1.32813,3.20313 c -0.15626,0.41667 -0.10417,0.72917 0.15625,0.9375 0.31249,0.26042 0.67708,0.39062 1.09375,0.39062 l 0.625,0 0,0.46875 -5.15625,0 0,-0.46875 0.39063,0 c 0.46874,0 0.91145,-0.15625 1.32812,-0.46875 0.36458,-0.26041 0.625,-0.59895 0.78125,-1.01562 z m 0,1.64063 -2.57813,6.25 5.39063,0 -2.73438,-6.25 z"
         style=""
         id="path2999" />
    </g>
    <flowRoot
       xml:space="preserve"
       id="flowRoot3037"
       style="font-size:20px;font-style:normal;font-variant:normal;font-weight:normal;font-stretch:normal;line-height:125%;letter-spacing:0px;word-spacing:0px;fill:#000000;fill-opacity:1;stroke:none;font-family:MS Mincho;-inkscape-font-specification:MS Mincho"
       transform="translate(200.6902,453.952)"><flowRegion
         id="flowRegion3039"><rect
           id="rect3041"
           width="129.13387"
           height="36.417324"
           x="-15.15748"
           y="-16.639395" /></flowRegion><flowPara
         id="flowPara3043" /></flowRoot>  </g>
</svg>
